<svg width="210" height="154" viewBox="0 0 210 154" fill="none" xmlns="http://www.w3.org/2000/svg">
<g filter="url(#filter0_bd_3_101)">
<path d="M192 76.5C192 76.5 244.175 145.478 126.5 141C198 105.5 -43.2493 146.358 12.5 59C12.5 59 72.0601 3.17547 131.5 3.17547C97.8671 33.05 192 76.5 192 76.5Z" fill="#361558"/>
<path d="M204 134.5C212 124 186.5 125.5 163 141C139.5 156.5 150.252 128.994 158.5 95.9999C163 77.9999 169 3.1755 146.5 3.17548C178 -24 196 145 204 134.5Z" fill="#936ABB"/>
<path d="M204 134.5C212 124 186.5 125.5 163 141C139.5 156.5 150.252 128.994 158.5 95.9999C163 77.9999 169 3.1755 146.5 3.17548C178 -24 196 145 204 134.5Z" fill="#F90202" fill-opacity="0.2"/>
</g>
<g filter="url(#filter1_i_3_101)">
<path d="M55.04 72.72C55.28 72.0267 55.4 71.3333 55.4 70.64C55.4 69.92 55.2533 69.36 54.96 68.96C54.6667 68.5333 54.2267 68.2267 53.64 68.04C52.68 67.7733 51.44 67.64 49.92 67.64H49.24V67H61.08V67.64C59.6667 67.64 58.5867 68.04 57.84 68.84C57.12 69.6133 56.48 70.84 55.92 72.52L49.64 91.36C49.4533 91.9467 49.2933 92.3867 49.16 92.68C48.76 93.4267 48.1333 93.8 47.28 93.8H47.16L41.6 75.8L36.4 91.36C36.2133 91.9467 36.04 92.3867 35.88 92.68C35.5067 93.4267 34.8933 93.8 34.04 93.8H33.92L25.84 67.64H23V67H33.4V67.64H30.44L36.44 88.28H36.68L41.2 74.52L39.08 67.64H36.24V67H46.64V67.64H43.68L49.68 88.28H49.92L55.04 72.72ZM67.1009 73.8C70.2743 73.8 72.3676 74.52 73.3809 75.96C74.4209 77.3733 74.9409 79.8533 74.9409 83.4V90.48C74.9409 91.5733 75.1809 92.12 75.6609 92.12C76.6476 92.12 77.3009 90.5867 77.6209 87.52L78.3409 87.6C77.9409 91.7333 76.5943 93.8 74.3009 93.8C73.6343 93.8 73.1143 93.56 72.7409 93.08C72.3943 92.6 72.1676 92.08 72.0609 91.52C71.9809 90.9333 71.9409 90.2133 71.9409 89.36H71.7009C71.3543 90.7733 70.6476 91.8667 69.5809 92.64C68.5143 93.4133 67.1409 93.8 65.4609 93.8C63.8076 93.8 62.3543 93.36 61.1009 92.48C59.8476 91.5733 59.2209 90.28 59.2209 88.6C59.2209 87.3467 59.5809 86.3067 60.3009 85.48C61.7943 83.7733 65.1809 82.92 70.4609 82.92C70.7543 82.92 71.0609 82.92 71.3809 82.92V80.96C71.3809 78.8533 71.0209 77.2667 70.3009 76.2C69.5809 75.1333 68.3276 74.6 66.5409 74.6C64.7809 74.6 63.4876 74.96 62.6609 75.68C61.8343 76.4 61.4209 77.1467 61.4209 77.92C61.4209 78.16 61.5276 78.28 61.7409 78.28C61.9809 78.28 62.1143 78.16 62.1409 77.92C62.3009 77.2267 62.8343 76.88 63.7409 76.88C64.3276 76.88 64.7943 77.0933 65.1409 77.52C65.4876 77.92 65.6609 78.4267 65.6609 79.04C65.6609 79.6267 65.4343 80.1333 64.9809 80.56C64.5543 80.96 63.9809 81.16 63.2609 81.16C62.5676 81.16 61.9543 80.8933 61.4209 80.36C60.9143 79.8 60.6609 79.12 60.6609 78.32C60.6609 76.8267 61.2876 75.7067 62.5409 74.96C63.7943 74.1867 65.3143 73.8 67.1009 73.8ZM71.3809 86.32V83.64C71.1143 83.64 70.6876 83.64 70.1009 83.64C69.5409 83.64 68.8609 83.68 68.0609 83.76C67.2876 83.84 66.4876 84.04 65.6609 84.36C63.9543 84.9733 63.1009 86.3333 63.1009 88.44C63.1009 89.72 63.4076 90.7467 64.0209 91.52C64.6343 92.2933 65.6209 92.68 66.9809 92.68C68.3409 92.68 69.4076 92.0667 70.1809 90.84C70.9809 89.6133 71.3809 88.1067 71.3809 86.32ZM88.9166 92.4V93H80.0766V92.4H82.7166V75.2H79.8766V74.6H80.7166C82.8232 74.6 84.7032 74.4267 86.3566 74.08V78.08H86.5966C87.0499 76.8 87.8099 75.7733 88.8766 75C89.9699 74.2 91.1832 73.8 92.5166 73.8C94.8366 73.8 96.4232 74.4933 97.2766 75.88C98.1299 77.24 98.5566 79.28 98.5566 82V92.4H101.197V93H92.3566V92.4H94.9966V82.56C94.9966 79.5467 94.7699 77.56 94.3166 76.6C94.1032 76.1733 93.7699 75.7867 93.3166 75.44C92.8899 75.0933 92.2499 74.92 91.3966 74.92C90.5432 74.92 89.7299 75.2267 88.9566 75.84C88.2099 76.4533 87.6499 77.2933 87.2766 78.36C86.6099 80.2533 86.2766 82.52 86.2766 85.16V92.4H88.9166ZM123.272 93H117.072V89.36H116.832C116.352 90.72 115.632 91.8 114.672 92.6C113.739 93.4 112.619 93.8 111.312 93.8C108.912 93.8 107.126 92.8667 105.952 91C104.806 89.1067 104.232 86.72 104.232 83.84C104.232 80.96 104.832 78.5733 106.032 76.68C107.232 74.76 109.072 73.8 111.552 73.8C114.032 73.8 115.792 74.8933 116.832 77.08H117.072V66H114.232V65.4H115.072C117.152 65.4 119.006 65.2267 120.632 64.88V92.4H123.272V93ZM117.152 83.84V82.4C117.152 80.32 116.752 78.56 115.952 77.12C115.152 75.6533 113.899 74.92 112.192 74.92C110.352 74.92 109.192 75.96 108.712 78.04C108.312 79.72 108.112 81.4 108.112 83.08C108.112 84.76 108.152 86.04 108.232 86.92C108.339 87.8 108.512 88.72 108.752 89.68C109.019 90.6133 109.446 91.3467 110.032 91.88C110.646 92.4133 111.366 92.68 112.192 92.68C113.046 92.68 113.792 92.3867 114.432 91.8C115.099 91.1867 115.619 90.4133 115.992 89.48C116.766 87.5867 117.152 85.7067 117.152 83.84ZM134.609 73.8C138.663 73.8 140.689 75.1733 140.689 77.92C140.689 78.72 140.423 79.4 139.889 79.96C139.383 80.4933 138.769 80.76 138.049 80.76C137.356 80.76 136.783 80.56 136.329 80.16C135.903 79.7333 135.689 79.2267 135.689 78.64C135.689 78.0267 135.863 77.52 136.209 77.12C136.556 76.6933 137.023 76.48 137.609 76.48C138.516 76.48 139.049 76.8267 139.209 77.52C139.236 77.76 139.356 77.88 139.569 77.88C139.809 77.88 139.929 77.76 139.929 77.52C139.929 76.7733 139.556 76.1067 138.809 75.52C138.089 74.9067 136.969 74.6 135.449 74.6C133.956 74.6 132.716 74.88 131.729 75.44C130.769 76 130.289 76.7867 130.289 77.8C130.289 78.7867 130.676 79.5867 131.449 80.2C132.223 80.8133 133.156 81.32 134.249 81.72C135.343 82.12 136.436 82.5467 137.529 83C138.649 83.4267 139.596 84.0533 140.369 84.88C141.143 85.7067 141.529 86.7067 141.529 87.88C141.529 89.88 140.809 91.3733 139.369 92.36C137.956 93.32 136.196 93.8 134.089 93.8C131.983 93.8 130.289 93.4267 129.009 92.68C127.729 91.9333 127.089 90.8 127.089 89.28C127.089 88.48 127.343 87.8133 127.849 87.28C128.383 86.72 128.996 86.44 129.689 86.44C130.409 86.44 130.983 86.6533 131.409 87.08C131.863 87.48 132.089 87.9867 132.089 88.6C132.089 89.1867 131.916 89.6933 131.569 90.12C131.223 90.52 130.756 90.72 130.169 90.72C129.263 90.72 128.729 90.3733 128.569 89.68C128.543 89.44 128.409 89.32 128.169 89.32C127.956 89.32 127.849 89.44 127.849 89.68C127.849 90.48 128.289 91.24 129.169 91.96C130.076 92.6533 131.409 93 133.169 93C137.036 93 138.969 91.7467 138.969 89.24C138.969 87.6933 137.649 86.44 135.009 85.48C133.889 85.08 132.783 84.6667 131.689 84.24C130.596 83.7867 129.663 83.1467 128.889 82.32C128.116 81.4933 127.729 80.4933 127.729 79.32C127.729 77.6133 128.396 76.2667 129.729 75.28C131.089 74.2933 132.716 73.8 134.609 73.8Z" fill="white" fill-opacity="0.39"/>
<path d="M55.04 72.72C55.28 72.0267 55.4 71.3333 55.4 70.64C55.4 69.92 55.2533 69.36 54.96 68.96C54.6667 68.5333 54.2267 68.2267 53.64 68.04C52.68 67.7733 51.44 67.64 49.92 67.64H49.24V67H61.08V67.64C59.6667 67.64 58.5867 68.04 57.84 68.84C57.12 69.6133 56.48 70.84 55.92 72.52L49.64 91.36C49.4533 91.9467 49.2933 92.3867 49.16 92.68C48.76 93.4267 48.1333 93.8 47.28 93.8H47.16L41.6 75.8L36.4 91.36C36.2133 91.9467 36.04 92.3867 35.88 92.68C35.5067 93.4267 34.8933 93.8 34.04 93.8H33.92L25.84 67.64H23V67H33.4V67.64H30.44L36.44 88.28H36.68L41.2 74.52L39.08 67.64H36.24V67H46.64V67.64H43.68L49.68 88.28H49.92L55.04 72.72ZM67.1009 73.8C70.2743 73.8 72.3676 74.52 73.3809 75.96C74.4209 77.3733 74.9409 79.8533 74.9409 83.4V90.48C74.9409 91.5733 75.1809 92.12 75.6609 92.12C76.6476 92.12 77.3009 90.5867 77.6209 87.52L78.3409 87.6C77.9409 91.7333 76.5943 93.8 74.3009 93.8C73.6343 93.8 73.1143 93.56 72.7409 93.08C72.3943 92.6 72.1676 92.08 72.0609 91.52C71.9809 90.9333 71.9409 90.2133 71.9409 89.36H71.7009C71.3543 90.7733 70.6476 91.8667 69.5809 92.64C68.5143 93.4133 67.1409 93.8 65.4609 93.8C63.8076 93.8 62.3543 93.36 61.1009 92.48C59.8476 91.5733 59.2209 90.28 59.2209 88.6C59.2209 87.3467 59.5809 86.3067 60.3009 85.48C61.7943 83.7733 65.1809 82.92 70.4609 82.92C70.7543 82.92 71.0609 82.92 71.3809 82.92V80.96C71.3809 78.8533 71.0209 77.2667 70.3009 76.2C69.5809 75.1333 68.3276 74.6 66.5409 74.6C64.7809 74.6 63.4876 74.96 62.6609 75.68C61.8343 76.4 61.4209 77.1467 61.4209 77.92C61.4209 78.16 61.5276 78.28 61.7409 78.28C61.9809 78.28 62.1143 78.16 62.1409 77.92C62.3009 77.2267 62.8343 76.88 63.7409 76.88C64.3276 76.88 64.7943 77.0933 65.1409 77.52C65.4876 77.92 65.6609 78.4267 65.6609 79.04C65.6609 79.6267 65.4343 80.1333 64.9809 80.56C64.5543 80.96 63.9809 81.16 63.2609 81.16C62.5676 81.16 61.9543 80.8933 61.4209 80.36C60.9143 79.8 60.6609 79.12 60.6609 78.32C60.6609 76.8267 61.2876 75.7067 62.5409 74.96C63.7943 74.1867 65.3143 73.8 67.1009 73.8ZM71.3809 86.32V83.64C71.1143 83.64 70.6876 83.64 70.1009 83.64C69.5409 83.64 68.8609 83.68 68.0609 83.76C67.2876 83.84 66.4876 84.04 65.6609 84.36C63.9543 84.9733 63.1009 86.3333 63.1009 88.44C63.1009 89.72 63.4076 90.7467 64.0209 91.52C64.6343 92.2933 65.6209 92.68 66.9809 92.68C68.3409 92.68 69.4076 92.0667 70.1809 90.84C70.9809 89.6133 71.3809 88.1067 71.3809 86.32ZM88.9166 92.4V93H80.0766V92.4H82.7166V75.2H79.8766V74.6H80.7166C82.8232 74.6 84.7032 74.4267 86.3566 74.08V78.08H86.5966C87.0499 76.8 87.8099 75.7733 88.8766 75C89.9699 74.2 91.1832 73.8 92.5166 73.8C94.8366 73.8 96.4232 74.4933 97.2766 75.88C98.1299 77.24 98.5566 79.28 98.5566 82V92.4H101.197V93H92.3566V92.4H94.9966V82.56C94.9966 79.5467 94.7699 77.56 94.3166 76.6C94.1032 76.1733 93.7699 75.7867 93.3166 75.44C92.8899 75.0933 92.2499 74.92 91.3966 74.92C90.5432 74.92 89.7299 75.2267 88.9566 75.84C88.2099 76.4533 87.6499 77.2933 87.2766 78.36C86.6099 80.2533 86.2766 82.52 86.2766 85.16V92.4H88.9166ZM123.272 93H117.072V89.36H116.832C116.352 90.72 115.632 91.8 114.672 92.6C113.739 93.4 112.619 93.8 111.312 93.8C108.912 93.8 107.126 92.8667 105.952 91C104.806 89.1067 104.232 86.72 104.232 83.84C104.232 80.96 104.832 78.5733 106.032 76.68C107.232 74.76 109.072 73.8 111.552 73.8C114.032 73.8 115.792 74.8933 116.832 77.08H117.072V66H114.232V65.4H115.072C117.152 65.4 119.006 65.2267 120.632 64.88V92.4H123.272V93ZM117.152 83.84V82.4C117.152 80.32 116.752 78.56 115.952 77.12C115.152 75.6533 113.899 74.92 112.192 74.92C110.352 74.92 109.192 75.96 108.712 78.04C108.312 79.72 108.112 81.4 108.112 83.08C108.112 84.76 108.152 86.04 108.232 86.92C108.339 87.8 108.512 88.72 108.752 89.68C109.019 90.6133 109.446 91.3467 110.032 91.88C110.646 92.4133 111.366 92.68 112.192 92.68C113.046 92.68 113.792 92.3867 114.432 91.8C115.099 91.1867 115.619 90.4133 115.992 89.48C116.766 87.5867 117.152 85.7067 117.152 83.84ZM134.609 73.8C138.663 73.8 140.689 75.1733 140.689 77.92C140.689 78.72 140.423 79.4 139.889 79.96C139.383 80.4933 138.769 80.76 138.049 80.76C137.356 80.76 136.783 80.56 136.329 80.16C135.903 79.7333 135.689 79.2267 135.689 78.64C135.689 78.0267 135.863 77.52 136.209 77.12C136.556 76.6933 137.023 76.48 137.609 76.48C138.516 76.48 139.049 76.8267 139.209 77.52C139.236 77.76 139.356 77.88 139.569 77.88C139.809 77.88 139.929 77.76 139.929 77.52C139.929 76.7733 139.556 76.1067 138.809 75.52C138.089 74.9067 136.969 74.6 135.449 74.6C133.956 74.6 132.716 74.88 131.729 75.44C130.769 76 130.289 76.7867 130.289 77.8C130.289 78.7867 130.676 79.5867 131.449 80.2C132.223 80.8133 133.156 81.32 134.249 81.72C135.343 82.12 136.436 82.5467 137.529 83C138.649 83.4267 139.596 84.0533 140.369 84.88C141.143 85.7067 141.529 86.7067 141.529 87.88C141.529 89.88 140.809 91.3733 139.369 92.36C137.956 93.32 136.196 93.8 134.089 93.8C131.983 93.8 130.289 93.4267 129.009 92.68C127.729 91.9333 127.089 90.8 127.089 89.28C127.089 88.48 127.343 87.8133 127.849 87.28C128.383 86.72 128.996 86.44 129.689 86.44C130.409 86.44 130.983 86.6533 131.409 87.08C131.863 87.48 132.089 87.9867 132.089 88.6C132.089 89.1867 131.916 89.6933 131.569 90.12C131.223 90.52 130.756 90.72 130.169 90.72C129.263 90.72 128.729 90.3733 128.569 89.68C128.543 89.44 128.409 89.32 128.169 89.32C127.956 89.32 127.849 89.44 127.849 89.68C127.849 90.48 128.289 91.24 129.169 91.96C130.076 92.6533 131.409 93 133.169 93C137.036 93 138.969 91.7467 138.969 89.24C138.969 87.6933 137.649 86.44 135.009 85.48C133.889 85.08 132.783 84.6667 131.689 84.24C130.596 83.7867 129.663 83.1467 128.889 82.32C128.116 81.4933 127.729 80.4933 127.729 79.32C127.729 77.6133 128.396 76.2667 129.729 75.28C131.089 74.2933 132.716 73.8 134.609 73.8Z" fill="white" fill-opacity="0.19"/>
<path d="M55.04 72.72C55.28 72.0267 55.4 71.3333 55.4 70.64C55.4 69.92 55.2533 69.36 54.96 68.96C54.6667 68.5333 54.2267 68.2267 53.64 68.04C52.68 67.7733 51.44 67.64 49.92 67.64H49.24V67H61.08V67.64C59.6667 67.64 58.5867 68.04 57.84 68.84C57.12 69.6133 56.48 70.84 55.92 72.52L49.64 91.36C49.4533 91.9467 49.2933 92.3867 49.16 92.68C48.76 93.4267 48.1333 93.8 47.28 93.8H47.16L41.6 75.8L36.4 91.36C36.2133 91.9467 36.04 92.3867 35.88 92.68C35.5067 93.4267 34.8933 93.8 34.04 93.8H33.92L25.84 67.64H23V67H33.4V67.64H30.44L36.44 88.28H36.68L41.2 74.52L39.08 67.64H36.24V67H46.64V67.64H43.68L49.68 88.28H49.92L55.04 72.72ZM67.1009 73.8C70.2743 73.8 72.3676 74.52 73.3809 75.96C74.4209 77.3733 74.9409 79.8533 74.9409 83.4V90.48C74.9409 91.5733 75.1809 92.12 75.6609 92.12C76.6476 92.12 77.3009 90.5867 77.6209 87.52L78.3409 87.6C77.9409 91.7333 76.5943 93.8 74.3009 93.8C73.6343 93.8 73.1143 93.56 72.7409 93.08C72.3943 92.6 72.1676 92.08 72.0609 91.52C71.9809 90.9333 71.9409 90.2133 71.9409 89.36H71.7009C71.3543 90.7733 70.6476 91.8667 69.5809 92.64C68.5143 93.4133 67.1409 93.8 65.4609 93.8C63.8076 93.8 62.3543 93.36 61.1009 92.48C59.8476 91.5733 59.2209 90.28 59.2209 88.6C59.2209 87.3467 59.5809 86.3067 60.3009 85.48C61.7943 83.7733 65.1809 82.92 70.4609 82.92C70.7543 82.92 71.0609 82.92 71.3809 82.92V80.96C71.3809 78.8533 71.0209 77.2667 70.3009 76.2C69.5809 75.1333 68.3276 74.6 66.5409 74.6C64.7809 74.6 63.4876 74.96 62.6609 75.68C61.8343 76.4 61.4209 77.1467 61.4209 77.92C61.4209 78.16 61.5276 78.28 61.7409 78.28C61.9809 78.28 62.1143 78.16 62.1409 77.92C62.3009 77.2267 62.8343 76.88 63.7409 76.88C64.3276 76.88 64.7943 77.0933 65.1409 77.52C65.4876 77.92 65.6609 78.4267 65.6609 79.04C65.6609 79.6267 65.4343 80.1333 64.9809 80.56C64.5543 80.96 63.9809 81.16 63.2609 81.16C62.5676 81.16 61.9543 80.8933 61.4209 80.36C60.9143 79.8 60.6609 79.12 60.6609 78.32C60.6609 76.8267 61.2876 75.7067 62.5409 74.96C63.7943 74.1867 65.3143 73.8 67.1009 73.8ZM71.3809 86.32V83.64C71.1143 83.64 70.6876 83.64 70.1009 83.64C69.5409 83.64 68.8609 83.68 68.0609 83.76C67.2876 83.84 66.4876 84.04 65.6609 84.36C63.9543 84.9733 63.1009 86.3333 63.1009 88.44C63.1009 89.72 63.4076 90.7467 64.0209 91.52C64.6343 92.2933 65.6209 92.68 66.9809 92.68C68.3409 92.68 69.4076 92.0667 70.1809 90.84C70.9809 89.6133 71.3809 88.1067 71.3809 86.32ZM88.9166 92.4V93H80.0766V92.4H82.7166V75.2H79.8766V74.6H80.7166C82.8232 74.6 84.7032 74.4267 86.3566 74.08V78.08H86.5966C87.0499 76.8 87.8099 75.7733 88.8766 75C89.9699 74.2 91.1832 73.8 92.5166 73.8C94.8366 73.8 96.4232 74.4933 97.2766 75.88C98.1299 77.24 98.5566 79.28 98.5566 82V92.4H101.197V93H92.3566V92.4H94.9966V82.56C94.9966 79.5467 94.7699 77.56 94.3166 76.6C94.1032 76.1733 93.7699 75.7867 93.3166 75.44C92.8899 75.0933 92.2499 74.92 91.3966 74.92C90.5432 74.92 89.7299 75.2267 88.9566 75.84C88.2099 76.4533 87.6499 77.2933 87.2766 78.36C86.6099 80.2533 86.2766 82.52 86.2766 85.16V92.4H88.9166ZM123.272 93H117.072V89.36H116.832C116.352 90.72 115.632 91.8 114.672 92.6C113.739 93.4 112.619 93.8 111.312 93.8C108.912 93.8 107.126 92.8667 105.952 91C104.806 89.1067 104.232 86.72 104.232 83.84C104.232 80.96 104.832 78.5733 106.032 76.68C107.232 74.76 109.072 73.8 111.552 73.8C114.032 73.8 115.792 74.8933 116.832 77.08H117.072V66H114.232V65.4H115.072C117.152 65.4 119.006 65.2267 120.632 64.88V92.4H123.272V93ZM117.152 83.84V82.4C117.152 80.32 116.752 78.56 115.952 77.12C115.152 75.6533 113.899 74.92 112.192 74.92C110.352 74.92 109.192 75.96 108.712 78.04C108.312 79.72 108.112 81.4 108.112 83.08C108.112 84.76 108.152 86.04 108.232 86.92C108.339 87.8 108.512 88.72 108.752 89.68C109.019 90.6133 109.446 91.3467 110.032 91.88C110.646 92.4133 111.366 92.68 112.192 92.68C113.046 92.68 113.792 92.3867 114.432 91.8C115.099 91.1867 115.619 90.4133 115.992 89.48C116.766 87.5867 117.152 85.7067 117.152 83.84ZM134.609 73.8C138.663 73.8 140.689 75.1733 140.689 77.92C140.689 78.72 140.423 79.4 139.889 79.96C139.383 80.4933 138.769 80.76 138.049 80.76C137.356 80.76 136.783 80.56 136.329 80.16C135.903 79.7333 135.689 79.2267 135.689 78.64C135.689 78.0267 135.863 77.52 136.209 77.12C136.556 76.6933 137.023 76.48 137.609 76.48C138.516 76.48 139.049 76.8267 139.209 77.52C139.236 77.76 139.356 77.88 139.569 77.88C139.809 77.88 139.929 77.76 139.929 77.52C139.929 76.7733 139.556 76.1067 138.809 75.52C138.089 74.9067 136.969 74.6 135.449 74.6C133.956 74.6 132.716 74.88 131.729 75.44C130.769 76 130.289 76.7867 130.289 77.8C130.289 78.7867 130.676 79.5867 131.449 80.2C132.223 80.8133 133.156 81.32 134.249 81.72C135.343 82.12 136.436 82.5467 137.529 83C138.649 83.4267 139.596 84.0533 140.369 84.88C141.143 85.7067 141.529 86.7067 141.529 87.88C141.529 89.88 140.809 91.3733 139.369 92.36C137.956 93.32 136.196 93.8 134.089 93.8C131.983 93.8 130.289 93.4267 129.009 92.68C127.729 91.9333 127.089 90.8 127.089 89.28C127.089 88.48 127.343 87.8133 127.849 87.28C128.383 86.72 128.996 86.44 129.689 86.44C130.409 86.44 130.983 86.6533 131.409 87.08C131.863 87.48 132.089 87.9867 132.089 88.6C132.089 89.1867 131.916 89.6933 131.569 90.12C131.223 90.52 130.756 90.72 130.169 90.72C129.263 90.72 128.729 90.3733 128.569 89.68C128.543 89.44 128.409 89.32 128.169 89.32C127.956 89.32 127.849 89.44 127.849 89.68C127.849 90.48 128.289 91.24 129.169 91.96C130.076 92.6533 131.409 93 133.169 93C137.036 93 138.969 91.7467 138.969 89.24C138.969 87.6933 137.649 86.44 135.009 85.48C133.889 85.08 132.783 84.6667 131.689 84.24C130.596 83.7867 129.663 83.1467 128.889 82.32C128.116 81.4933 127.729 80.4933 127.729 79.32C127.729 77.6133 128.396 76.2667 129.729 75.28C131.089 74.2933 132.716 73.8 134.609 73.8Z" fill="white" fill-opacity="0.19"/>
</g>
<g filter="url(#filter2_d_3_101)">
<path d="M76.3242 110.6C76.487 110.574 76.6204 110.548 76.7246 110.521C76.8353 110.489 76.9557 110.44 77.0859 110.375C77.2161 110.31 77.3138 110.219 77.3789 110.102C77.444 109.978 77.4766 109.831 77.4766 109.662L77.4961 105.023C77.4961 103.845 77.1445 103.256 76.4414 103.256C76.0898 103.256 75.709 103.367 75.2988 103.588C74.8887 103.809 74.3971 104.141 73.8242 104.584V104.701L73.9023 109.662C73.9089 109.831 73.9577 109.978 74.0488 110.102C74.1465 110.219 74.2832 110.31 74.459 110.375C74.6348 110.44 74.7812 110.489 74.8984 110.521C75.0156 110.548 75.1686 110.574 75.3574 110.6C75.3835 110.73 75.3965 110.818 75.3965 110.863C75.3965 110.915 75.3835 110.98 75.3574 111.059C74.5176 111.02 73.7526 111 73.0625 111C72.431 111 71.6953 111.02 70.8555 111.059C70.8294 110.954 70.8164 110.876 70.8164 110.824C70.8164 110.779 70.8294 110.704 70.8555 110.6C71.0182 110.574 71.1549 110.548 71.2656 110.521C71.3763 110.489 71.4967 110.44 71.627 110.375C71.7572 110.31 71.8548 110.219 71.9199 110.102C71.985 109.978 72.0176 109.831 72.0176 109.662L72.0371 105.023C72.0371 103.845 71.6855 103.256 70.9824 103.256C70.6309 103.256 70.2565 103.363 69.8594 103.578C69.4688 103.793 68.9772 104.122 68.3848 104.564C68.3848 106.472 68.4108 108.171 68.4629 109.662C68.4694 109.831 68.515 109.978 68.5996 110.102C68.6842 110.219 68.8047 110.31 68.9609 110.375C69.1237 110.44 69.2637 110.489 69.3809 110.521C69.498 110.548 69.6445 110.574 69.8203 110.6C69.8594 110.678 69.8789 110.759 69.8789 110.844C69.8789 110.909 69.8594 110.98 69.8203 111.059C68.9609 111.02 68.1602 111 67.418 111C66.6237 111 65.7969 111.02 64.9375 111.059C64.9115 110.954 64.8984 110.883 64.8984 110.844C64.8984 110.811 64.9115 110.73 64.9375 110.6C65.1523 110.574 65.3281 110.548 65.4648 110.521C65.6016 110.489 65.7708 110.44 65.9727 110.375C66.1745 110.31 66.3275 110.219 66.4316 110.102C66.5358 109.978 66.5911 109.831 66.5977 109.662C66.6237 109.018 66.6367 108.236 66.6367 107.318C66.6367 107.012 66.6335 106.492 66.627 105.756C66.6204 105.02 66.6172 104.376 66.6172 103.822C66.2461 103.594 65.6211 103.461 64.7422 103.422C64.7161 103.318 64.7031 103.236 64.7031 103.178C64.7031 103.139 64.7161 103.067 64.7422 102.963C66.0052 102.833 67.1055 102.566 68.043 102.162C68.2057 102.227 68.3197 102.312 68.3848 102.416V103.959C68.6908 103.679 68.9479 103.454 69.1562 103.285C69.3646 103.109 69.6185 102.921 69.918 102.719C70.224 102.517 70.5267 102.367 70.8262 102.27C71.1322 102.172 71.4447 102.123 71.7637 102.123C72.4017 102.123 72.877 102.276 73.1895 102.582C73.502 102.882 73.6973 103.354 73.7754 103.998C74.1074 103.699 74.3711 103.467 74.5664 103.305C74.7682 103.142 75.0286 102.953 75.3477 102.738C75.6667 102.523 75.9792 102.367 76.2852 102.27C76.5911 102.172 76.9036 102.123 77.2227 102.123C77.9583 102.123 78.4824 102.331 78.7949 102.748C79.1074 103.165 79.2702 103.816 79.2832 104.701L79.3809 109.662C79.3874 109.831 79.4362 109.978 79.5273 110.102C79.625 110.219 79.7617 110.31 79.9375 110.375C80.1133 110.44 80.2598 110.489 80.377 110.521C80.4941 110.548 80.6471 110.574 80.8359 110.6C80.8685 110.762 80.8848 110.85 80.8848 110.863C80.8848 110.896 80.8685 110.961 80.8359 111.059C79.9961 111.02 79.2246 111 78.5215 111C77.8965 111 77.1641 111.02 76.3242 111.059C76.2917 110.928 76.2754 110.85 76.2754 110.824C76.2754 110.805 76.2917 110.73 76.3242 110.6ZM83.043 104.584C83.043 103.868 83.3685 103.279 84.0195 102.816C84.6771 102.354 85.4518 102.123 86.3438 102.123C87.4375 102.123 88.2057 102.341 88.6484 102.777C89.0977 103.214 89.3223 103.949 89.3223 104.984V109.037C89.3223 109.402 89.4557 109.584 89.7227 109.584C89.9375 109.584 90.2109 109.324 90.543 108.803C90.7773 108.822 90.9368 108.926 91.0215 109.115C90.9759 109.18 90.8978 109.298 90.7871 109.467C90.6764 109.636 90.5951 109.757 90.543 109.828C90.4909 109.9 90.4095 110.01 90.2988 110.16C90.1882 110.303 90.097 110.411 90.0254 110.482C89.9603 110.554 89.8691 110.639 89.752 110.736C89.6413 110.834 89.5371 110.909 89.4395 110.961C89.3483 111.007 89.2409 111.046 89.1172 111.078C88.9935 111.117 88.8698 111.137 88.7461 111.137C88.4206 111.137 88.1504 111.02 87.9355 110.785C87.7272 110.551 87.6035 110.189 87.5645 109.701C87.5579 109.708 87.457 109.802 87.2617 109.984C87.0664 110.167 86.9297 110.29 86.8516 110.355C86.7799 110.414 86.64 110.521 86.4316 110.678C86.2298 110.827 86.0573 110.935 85.9141 111C85.7708 111.065 85.5918 111.127 85.377 111.186C85.1621 111.251 84.9505 111.283 84.7422 111.283C84.4102 111.283 84.1139 111.238 83.8535 111.146C83.5996 111.055 83.401 110.945 83.2578 110.814C83.1146 110.684 82.9974 110.535 82.9062 110.365C82.8151 110.189 82.7533 110.03 82.7207 109.887C82.6947 109.743 82.6816 109.6 82.6816 109.457C82.6816 109.021 82.7533 108.653 82.8965 108.354C83.0462 108.054 83.3197 107.774 83.7168 107.514C84.1204 107.253 84.6152 107.022 85.2012 106.82C85.7871 106.618 86.5749 106.391 87.5645 106.137V104.779C87.5645 104.122 87.418 103.63 87.125 103.305C86.8385 102.979 86.4512 102.816 85.9629 102.816C85.5267 102.816 85.1589 102.904 84.8594 103.08C84.5664 103.249 84.3874 103.448 84.3223 103.676C84.9603 103.773 85.2793 104.122 85.2793 104.721C85.2793 104.994 85.1816 105.235 84.9863 105.443C84.791 105.652 84.5176 105.756 84.166 105.756C83.873 105.756 83.6126 105.655 83.3848 105.453C83.1569 105.245 83.043 104.955 83.043 104.584ZM87.5645 108.803V106.762C86.9655 106.898 86.4707 107.048 86.0801 107.211C85.6895 107.367 85.39 107.54 85.1816 107.729C84.9798 107.917 84.8398 108.113 84.7617 108.314C84.6836 108.51 84.6445 108.738 84.6445 108.998C84.6445 109.324 84.7389 109.581 84.9277 109.77C85.123 109.952 85.3607 110.043 85.6406 110.043C86.2917 110.043 86.9329 109.63 87.5645 108.803ZM92.2617 102.963C93.5247 102.833 94.625 102.566 95.5625 102.162C95.7253 102.227 95.8392 102.312 95.9043 102.416V104.096C96.1452 103.64 96.5033 103.197 96.9785 102.768C97.4603 102.338 97.9616 102.123 98.4824 102.123C98.873 102.123 99.1888 102.24 99.4297 102.475C99.6771 102.702 99.8008 103.018 99.8008 103.422C99.8008 103.806 99.6868 104.105 99.459 104.32C99.2311 104.535 98.9447 104.643 98.5996 104.643C98.2806 104.643 98.0169 104.542 97.8086 104.34C97.6068 104.132 97.4961 103.858 97.4766 103.52C97.2031 103.637 96.8906 103.897 96.5391 104.301C96.194 104.704 95.9824 105.105 95.9043 105.502C95.9043 106.954 95.9303 108.34 95.9824 109.662C95.9889 109.831 96.0508 109.978 96.168 110.102C96.2852 110.219 96.4577 110.31 96.6855 110.375C96.9134 110.44 97.1022 110.489 97.252 110.521C97.4017 110.548 97.597 110.574 97.8379 110.6C97.877 110.678 97.8965 110.759 97.8965 110.844C97.8965 110.909 97.877 110.98 97.8379 111.059C96.8613 111.02 95.8945 111 94.9375 111C94.1432 111 93.3164 111.02 92.457 111.059C92.431 110.954 92.418 110.883 92.418 110.844C92.418 110.811 92.431 110.73 92.457 110.6C92.6719 110.574 92.8477 110.548 92.9844 110.521C93.1211 110.489 93.2904 110.44 93.4922 110.375C93.694 110.31 93.847 110.219 93.9512 110.102C94.0553 109.978 94.1107 109.831 94.1172 109.662C94.1432 109.018 94.1562 108.236 94.1562 107.318C94.1562 107.012 94.153 106.492 94.1465 105.756C94.14 105.02 94.1367 104.376 94.1367 103.822C93.7656 103.594 93.1406 103.461 92.2617 103.422C92.2357 103.318 92.2227 103.236 92.2227 103.178C92.2227 103.139 92.2357 103.067 92.2617 102.963ZM107.105 110.6C107.678 110.541 107.965 110.388 107.965 110.141C107.965 109.997 107.893 109.838 107.75 109.662L105.084 106.244H104.605C104.605 107.8 104.625 108.939 104.664 109.662C104.664 109.831 104.706 109.978 104.791 110.102C104.882 110.219 105.012 110.31 105.182 110.375C105.357 110.44 105.501 110.489 105.611 110.521C105.729 110.548 105.882 110.574 106.07 110.6C106.109 110.678 106.129 110.759 106.129 110.844C106.129 110.928 106.109 111 106.07 111.059C105.211 111.02 104.397 111 103.629 111C102.835 111 102.008 111.02 101.148 111.059C101.122 110.954 101.109 110.883 101.109 110.844C101.109 110.811 101.122 110.73 101.148 110.6C101.363 110.574 101.536 110.548 101.666 110.521C101.803 110.489 101.972 110.44 102.174 110.375C102.382 110.31 102.538 110.219 102.643 110.102C102.747 109.978 102.802 109.831 102.809 109.662C102.835 109.018 102.844 106.986 102.838 103.568C102.831 100.144 102.828 98.2266 102.828 97.8164C102.457 97.6016 101.832 97.4681 100.953 97.416C100.921 97.3314 100.904 97.2533 100.904 97.1816C100.904 97.1165 100.921 97.0417 100.953 96.957C102.19 96.8398 103.287 96.5729 104.244 96.1562C104.42 96.2279 104.534 96.3158 104.586 96.4199L104.605 105.619H105.113L107.086 103.744C107.21 103.601 107.271 103.454 107.271 103.305C107.271 103.031 106.962 102.862 106.344 102.797C106.318 102.693 106.305 102.621 106.305 102.582C106.305 102.523 106.318 102.442 106.344 102.338C107.19 102.377 107.864 102.396 108.365 102.396C108.912 102.396 109.605 102.377 110.445 102.338C110.471 102.416 110.484 102.484 110.484 102.543C110.484 102.582 110.471 102.667 110.445 102.797C109.866 102.862 109.387 102.96 109.01 103.09C108.632 103.214 108.29 103.432 107.984 103.744L106.432 105.316L109.869 109.662C110.26 110.17 110.846 110.482 111.627 110.6C111.653 110.73 111.666 110.818 111.666 110.863C111.666 110.915 111.653 110.98 111.627 111.059C110.787 111.02 110.029 111 109.352 111C108.694 111 107.945 111.02 107.105 111.059C107.079 110.954 107.066 110.876 107.066 110.824C107.066 110.779 107.079 110.704 107.105 110.6ZM119.625 105.824H114.303C114.277 106.215 114.264 106.56 114.264 106.859C114.283 107.829 114.566 108.607 115.113 109.193C115.66 109.773 116.393 110.062 117.311 110.062C117.558 110.062 117.789 110.036 118.004 109.984C118.219 109.926 118.395 109.861 118.531 109.789C118.674 109.717 118.821 109.613 118.971 109.477C119.12 109.34 119.228 109.232 119.293 109.154C119.365 109.07 119.459 108.946 119.576 108.783C119.693 108.614 119.771 108.507 119.811 108.461C119.967 108.493 120.094 108.565 120.191 108.676C119.866 109.548 119.361 110.202 118.678 110.639C117.994 111.068 117.252 111.283 116.451 111.283C116.054 111.283 115.667 111.231 115.289 111.127C114.918 111.029 114.557 110.867 114.205 110.639C113.854 110.411 113.548 110.131 113.287 109.799C113.027 109.46 112.818 109.04 112.662 108.539C112.506 108.031 112.428 107.471 112.428 106.859C112.428 105.486 112.848 104.353 113.688 103.461C114.527 102.569 115.559 102.123 116.783 102.123C117.324 102.123 117.792 102.201 118.189 102.357C118.593 102.507 118.906 102.712 119.127 102.973C119.355 103.233 119.521 103.52 119.625 103.832C119.736 104.138 119.791 104.467 119.791 104.818C119.791 105.144 119.736 105.479 119.625 105.824ZM116.549 102.758C116.1 102.758 115.673 102.956 115.27 103.354C114.872 103.751 114.586 104.353 114.41 105.16H117.926C117.991 104.913 118.023 104.698 118.023 104.516C118.023 104.008 117.906 103.588 117.672 103.256C117.438 102.924 117.063 102.758 116.549 102.758ZM124.508 100.463C124.573 100.437 124.648 100.424 124.732 100.424C124.817 100.424 124.905 100.437 124.996 100.463V102.602H127.955C127.994 102.699 128.014 102.82 128.014 102.963C128.014 103.087 127.994 103.201 127.955 103.305H124.996V108.52C124.996 109.548 125.468 110.062 126.412 110.062C126.77 110.062 127.076 109.994 127.33 109.857C127.59 109.721 127.877 109.516 128.189 109.242C128.352 109.262 128.46 109.34 128.512 109.477C128.225 109.991 127.802 110.421 127.242 110.766C126.682 111.111 126.067 111.283 125.396 111.283C123.821 111.283 123.033 110.329 123.033 108.422V103.305H121.832C121.806 103.188 121.793 103.113 121.793 103.08C121.793 103.074 121.806 102.999 121.832 102.855C122.145 102.699 122.382 102.572 122.545 102.475C122.714 102.37 122.926 102.224 123.18 102.035C123.44 101.846 123.674 101.625 123.883 101.371C124.098 101.111 124.306 100.808 124.508 100.463Z" fill="white"/>
</g>
<path d="M57.04 71.72C57.28 71.0267 57.4 70.3333 57.4 69.64C57.4 68.92 57.2533 68.36 56.96 67.96C56.6667 67.5333 56.2267 67.2267 55.64 67.04C54.68 66.7733 53.44 66.64 51.92 66.64H51.24V66H63.08V66.64C61.6667 66.64 60.5867 67.04 59.84 67.84C59.12 68.6133 58.48 69.84 57.92 71.52L51.64 90.36C51.4533 90.9467 51.2933 91.3867 51.16 91.68C50.76 92.4267 50.1333 92.8 49.28 92.8H49.16L43.6 74.8L38.4 90.36C38.2133 90.9467 38.04 91.3867 37.88 91.68C37.5067 92.4267 36.8933 92.8 36.04 92.8H35.92L27.84 66.64H25V66H35.4V66.64H32.44L38.44 87.28H38.68L43.2 73.52L41.08 66.64H38.24V66H48.64V66.64H45.68L51.68 87.28H51.92L57.04 71.72ZM69.1009 72.8C72.2743 72.8 74.3676 73.52 75.3809 74.96C76.4209 76.3733 76.9409 78.8533 76.9409 82.4V89.48C76.9409 90.5733 77.1809 91.12 77.6609 91.12C78.6476 91.12 79.3009 89.5867 79.6209 86.52L80.3409 86.6C79.9409 90.7333 78.5943 92.8 76.3009 92.8C75.6343 92.8 75.1143 92.56 74.7409 92.08C74.3943 91.6 74.1676 91.08 74.0609 90.52C73.9809 89.9333 73.9409 89.2133 73.9409 88.36H73.7009C73.3543 89.7733 72.6476 90.8667 71.5809 91.64C70.5143 92.4133 69.1409 92.8 67.4609 92.8C65.8076 92.8 64.3543 92.36 63.1009 91.48C61.8476 90.5733 61.2209 89.28 61.2209 87.6C61.2209 86.3467 61.5809 85.3067 62.3009 84.48C63.7943 82.7733 67.1809 81.92 72.4609 81.92C72.7543 81.92 73.0609 81.92 73.3809 81.92V79.96C73.3809 77.8533 73.0209 76.2667 72.3009 75.2C71.5809 74.1333 70.3276 73.6 68.5409 73.6C66.7809 73.6 65.4876 73.96 64.6609 74.68C63.8343 75.4 63.4209 76.1467 63.4209 76.92C63.4209 77.16 63.5276 77.28 63.7409 77.28C63.9809 77.28 64.1143 77.16 64.1409 76.92C64.3009 76.2267 64.8343 75.88 65.7409 75.88C66.3276 75.88 66.7943 76.0933 67.1409 76.52C67.4876 76.92 67.6609 77.4267 67.6609 78.04C67.6609 78.6267 67.4343 79.1333 66.9809 79.56C66.5543 79.96 65.9809 80.16 65.2609 80.16C64.5676 80.16 63.9543 79.8933 63.4209 79.36C62.9143 78.8 62.6609 78.12 62.6609 77.32C62.6609 75.8267 63.2876 74.7067 64.5409 73.96C65.7943 73.1867 67.3143 72.8 69.1009 72.8ZM73.3809 85.32V82.64C73.1143 82.64 72.6876 82.64 72.1009 82.64C71.5409 82.64 70.8609 82.68 70.0609 82.76C69.2876 82.84 68.4876 83.04 67.6609 83.36C65.9543 83.9733 65.1009 85.3333 65.1009 87.44C65.1009 88.72 65.4076 89.7467 66.0209 90.52C66.6343 91.2933 67.6209 91.68 68.9809 91.68C70.3409 91.68 71.4076 91.0667 72.1809 89.84C72.9809 88.6133 73.3809 87.1067 73.3809 85.32ZM90.9166 91.4V92H82.0766V91.4H84.7166V74.2H81.8766V73.6H82.7166C84.8232 73.6 86.7032 73.4267 88.3566 73.08V77.08H88.5966C89.0499 75.8 89.8099 74.7733 90.8766 74C91.9699 73.2 93.1832 72.8 94.5166 72.8C96.8366 72.8 98.4232 73.4933 99.2766 74.88C100.13 76.24 100.557 78.28 100.557 81V91.4H103.197V92H94.3566V91.4H96.9966V81.56C96.9966 78.5467 96.7699 76.56 96.3166 75.6C96.1032 75.1733 95.7699 74.7867 95.3166 74.44C94.8899 74.0933 94.2499 73.92 93.3966 73.92C92.5432 73.92 91.7299 74.2267 90.9566 74.84C90.2099 75.4533 89.6499 76.2933 89.2766 77.36C88.6099 79.2533 88.2766 81.52 88.2766 84.16V91.4H90.9166ZM125.272 92H119.072V88.36H118.832C118.352 89.72 117.632 90.8 116.672 91.6C115.739 92.4 114.619 92.8 113.312 92.8C110.912 92.8 109.126 91.8667 107.952 90C106.806 88.1067 106.232 85.72 106.232 82.84C106.232 79.96 106.832 77.5733 108.032 75.68C109.232 73.76 111.072 72.8 113.552 72.8C116.032 72.8 117.792 73.8933 118.832 76.08H119.072V65H116.232V64.4H117.072C119.152 64.4 121.006 64.2267 122.632 63.88V91.4H125.272V92ZM119.152 82.84V81.4C119.152 79.32 118.752 77.56 117.952 76.12C117.152 74.6533 115.899 73.92 114.192 73.92C112.352 73.92 111.192 74.96 110.712 77.04C110.312 78.72 110.112 80.4 110.112 82.08C110.112 83.76 110.152 85.04 110.232 85.92C110.339 86.8 110.512 87.72 110.752 88.68C111.019 89.6133 111.446 90.3467 112.032 90.88C112.646 91.4133 113.366 91.68 114.192 91.68C115.046 91.68 115.792 91.3867 116.432 90.8C117.099 90.1867 117.619 89.4133 117.992 88.48C118.766 86.5867 119.152 84.7067 119.152 82.84ZM136.609 72.8C140.663 72.8 142.689 74.1733 142.689 76.92C142.689 77.72 142.423 78.4 141.889 78.96C141.383 79.4933 140.769 79.76 140.049 79.76C139.356 79.76 138.783 79.56 138.329 79.16C137.903 78.7333 137.689 78.2267 137.689 77.64C137.689 77.0267 137.863 76.52 138.209 76.12C138.556 75.6933 139.023 75.48 139.609 75.48C140.516 75.48 141.049 75.8267 141.209 76.52C141.236 76.76 141.356 76.88 141.569 76.88C141.809 76.88 141.929 76.76 141.929 76.52C141.929 75.7733 141.556 75.1067 140.809 74.52C140.089 73.9067 138.969 73.6 137.449 73.6C135.956 73.6 134.716 73.88 133.729 74.44C132.769 75 132.289 75.7867 132.289 76.8C132.289 77.7867 132.676 78.5867 133.449 79.2C134.223 79.8133 135.156 80.32 136.249 80.72C137.343 81.12 138.436 81.5467 139.529 82C140.649 82.4267 141.596 83.0533 142.369 83.88C143.143 84.7067 143.529 85.7067 143.529 86.88C143.529 88.88 142.809 90.3733 141.369 91.36C139.956 92.32 138.196 92.8 136.089 92.8C133.983 92.8 132.289 92.4267 131.009 91.68C129.729 90.9333 129.089 89.8 129.089 88.28C129.089 87.48 129.343 86.8133 129.849 86.28C130.383 85.72 130.996 85.44 131.689 85.44C132.409 85.44 132.983 85.6533 133.409 86.08C133.863 86.48 134.089 86.9867 134.089 87.6C134.089 88.1867 133.916 88.6933 133.569 89.12C133.223 89.52 132.756 89.72 132.169 89.72C131.263 89.72 130.729 89.3733 130.569 88.68C130.543 88.44 130.409 88.32 130.169 88.32C129.956 88.32 129.849 88.44 129.849 88.68C129.849 89.48 130.289 90.24 131.169 90.96C132.076 91.6533 133.409 92 135.169 92C139.036 92 140.969 90.7467 140.969 88.24C140.969 86.6933 139.649 85.44 137.009 84.48C135.889 84.08 134.783 83.6667 133.689 83.24C132.596 82.7867 131.663 82.1467 130.889 81.32C130.116 80.4933 129.729 79.4933 129.729 78.32C129.729 76.6133 130.396 75.2667 131.729 74.28C133.089 73.2933 134.716 72.8 136.609 72.8Z" fill="white"/>
<defs>
<filter id="filter0_bd_3_101" x="0.0563049" y="-3.78711" width="209.444" height="157.227" filterUnits="userSpaceOnUse" color-interpolation-filters="sRGB">
<feFlood flood-opacity="0" result="BackgroundImageFix"/>
<feGaussianBlur in="BackgroundImage" stdDeviation="2"/>
<feComposite in2="SourceAlpha" operator="in" result="effect1_backgroundBlur_3_101"/>
<feColorMatrix in="SourceAlpha" type="matrix" values="0 0 0 0 0 0 0 0 0 0 0 0 0 0 0 0 0 0 127 0" result="hardAlpha"/>
<feOffset dy="4"/>
<feGaussianBlur stdDeviation="2"/>
<feComposite in2="hardAlpha" operator="out"/>
<feColorMatrix type="matrix" values="0 0 0 0 0 0 0 0 0 0 0 0 0 0 0 0 0 0 0.25 0"/>
<feBlend mode="normal" in2="effect1_backgroundBlur_3_101" result="effect2_dropShadow_3_101"/>
<feBlend mode="normal" in="SourceGraphic" in2="effect2_dropShadow_3_101" result="shape"/>
</filter>
<filter id="filter1_i_3_101" x="23" y="64.88" width="118.529" height="32.92" filterUnits="userSpaceOnUse" color-interpolation-filters="sRGB">
<feFlood flood-opacity="0" result="BackgroundImageFix"/>
<feBlend mode="normal" in="SourceGraphic" in2="BackgroundImageFix" result="shape"/>
<feColorMatrix in="SourceAlpha" type="matrix" values="0 0 0 0 0 0 0 0 0 0 0 0 0 0 0 0 0 0 127 0" result="hardAlpha"/>
<feOffset dy="4"/>
<feGaussianBlur stdDeviation="2"/>
<feComposite in2="hardAlpha" operator="arithmetic" k2="-1" k3="1"/>
<feColorMatrix type="matrix" values="0 0 0 0 0 0 0 0 0 0 0 0 0 0 0 0 0 0 0.25 0"/>
<feBlend mode="normal" in2="shape" result="effect1_innerShadow_3_101"/>
</filter>
<filter id="filter2_d_3_101" x="60.7031" y="96.1562" width="71.8086" height="23.127" filterUnits="userSpaceOnUse" color-interpolation-filters="sRGB">
<feFlood flood-opacity="0" result="BackgroundImageFix"/>
<feColorMatrix in="SourceAlpha" type="matrix" values="0 0 0 0 0 0 0 0 0 0 0 0 0 0 0 0 0 0 127 0" result="hardAlpha"/>
<feOffset dy="4"/>
<feGaussianBlur stdDeviation="2"/>
<feComposite in2="hardAlpha" operator="out"/>
<feColorMatrix type="matrix" values="0 0 0 0 0 0 0 0 0 0 0 0 0 0 0 0 0 0 0.25 0"/>
<feBlend mode="normal" in2="BackgroundImageFix" result="effect1_dropShadow_3_101"/>
<feBlend mode="normal" in="SourceGraphic" in2="effect1_dropShadow_3_101" result="shape"/>
</filter>
</defs>
</svg>
