<svg xmlns="http://www.w3.org/2000/svg" xmlns:svgjs="http://svgjs.com/svgjs" xmlns:xlink="http://www.w3.org/1999/xlink" width="288" height="288"><svg xmlns="http://www.w3.org/2000/svg" width="288" fill="currentColor" style="width:1em;height:1em;vertical-align:middle" height="288" class="svg-icon" overflow="hidden" viewBox="0 0 1024 1024"><path fill="#adadad" d="M160.002278 319.999156l53.31986-106.659719L320.001856 159.999578l-106.679718-53.339859L160.002278 0 106.682419 106.679719 0.0027 159.999578l106.679719 53.339859L160.002278 319.999156z m287.999241-127.999662l31.999915-63.999831 63.999832-31.999916-63.999832-31.999916-31.999915-63.999831-31.999916 63.999831-63.999831 31.999916 63.999831 31.999916 31.999916 63.999831z m469.318762 490.658706L864.000422 575.998481l-53.31986 106.659719L704.000844 735.998059l106.679718 53.33986L864.000422 895.997638l53.319859-106.659719L1024 735.998059l-106.679719-53.339859zM800.000591 383.998988c17.679953 0 31.999916-14.319962 31.999915-31.999916v-55.919853l183.739516-203.659463c11.43997-12.639967 10.959971-32.039916-1.099997-44.099883L975.680127 9.379975c-12.059968-12.059968-31.459917-12.539967-44.099883-1.099997L373.201716 511.99865H288.001941c-17.679953 0-31.999916 14.319962-31.999916 31.999916v73.739805L21.062644 829.677812c-27.139928 24.559935-28.199926 66.839824-2.319993 92.719756l82.859781 82.859781c25.879932 25.879932 68.15982 24.819935 92.719756-2.319993L752.680715 383.998988H800.000591z" class="color000 svgShape"/></svg></svg>
